# xmcd CD database file
#
# Track frame offsets:
#	150
#	25268
#	39288
#	56757
#	69432
#	83081
#	98900
#	111497
#	116522
#	131747
#	145615
#	177410
#	186931
#	199153
#	215278
#	242428
#
# Disc length: 3468 seconds
#
# Revision: 0
# Processed by: cddbd v1.5.2PL0 Copyright (c) Steve Scherf et al.
# Submitted via: jetAudio 7
#
DISCID=e10d8a10
DTITLE=楊雪霏  - 愛的浪漫 ROMANCE DE AMOR
DYEAR=1900
DGENRE=장르 없음
TTITLE0=Asturias
TTITLE1=Romance De Amor
TTITLE2=Recuerdos De La Alhambra
TTITLE3=Zapateado
TTITLE4=Michelle
TTITLE5=Cavatina
TTITLE6=Schindler's List
TTITLE7=El Colibri
TTITLE8=El Condor Pasa
TTITLE9=Seis Por Derecho
TTITLE10=Un Sueno En La Floresta
TTITLE11=Etude No.7
TTITLE12=La Cumparsita
TTITLE13=I Believe
TTITLE14=Sakura
TTITLE15=Spring Breeze
EXTD=
EXTT0=
EXTT1=
EXTT2=
EXTT3=
EXTT4=
EXTT5=
EXTT6=
EXTT7=
EXTT8=
EXTT9=
EXTT10=
EXTT11=
EXTT12=
EXTT13=
EXTT14=
EXTT15=
PLAYORDER=
